<?xml version="1.0" encoding="UTF-8"?>
<svg id="_レイヤー_2" data-name="レイヤー_2" xmlns="http://www.w3.org/2000/svg" viewBox="0 0 561.02 227.28">
  <defs>
    <style>
      .cls-1 {
        fill: #fff;
      }
    </style>
  </defs>
  <g id="_レイヤー_1-2" data-name="レイヤー_1">
    <g>
      <path class="cls-1" d="M88.95,18.31h0v79.78L63.12,18.31H24.59v53.23l21.65-9.22v133.17h16.87v-80.55l23.97,80.55h17.12v-17.32h8.25v17.32h15.01V18.31L88.95,0v18.31ZM105.15,171.44h-8.25v-8.11h8.25v8.11ZM96.81,156.5v-8.11h8.25v8.11h-8.25ZM105.19,141.69h-8.25v-8.11h8.25v8.11ZM119.43,103.69v8.11h-8.25v-8.11h8.25ZM111.19,96.92v-8.11h8.25v8.11h-8.25ZM111.27,133.58h8.25v8.11h-8.25v-8.11ZM111.27,148.46h8.25v8.11h-8.25v-8.11ZM119.61,171.51h-8.25v-8.11h8.25v8.11ZM119.51,126.81h-8.25v-8.25h8.25v8.25ZM119.43,82.04h-8.25v-8.25h8.25v8.25ZM111.05,28.95h8.25v8.25h-8.25v-8.25ZM111.05,43.97h8.25v8.11h-8.25v-8.11ZM111.05,58.85h8.25v8.11h-8.25v-8.11ZM105.19,126.74h-8.25v-8.11h8.25v8.11ZM105.11,96.92h-8.25v-8.11h8.25v8.11ZM105.11,81.97h-8.25v-8.11h8.25v8.11ZM96.73,29.02h8.25v8.11h-8.25v-8.11ZM96.73,43.97h8.25v8.11h-8.25v-8.11ZM96.73,58.92h8.25v8.11h-8.25v-8.11ZM96.73,103.62h8.25v8.11h-8.25v-8.11Z"/>
      <polygon class="cls-1" points="0 195.49 39.26 195.49 39.26 89.48 39.26 73.78 0 89.48 0 195.49"/>
      <path class="cls-1" d="M174.11,95.02c-21.08,0-34.34,10.71-34.34,32.13v37.4c0,21.42,13.26,32.13,34.34,32.13s34.51-10.71,34.51-32.13v-37.4c0-21.42-13.6-32.13-34.51-32.13ZM181.25,166.42c0,7.48-1.53,11.9-6.97,11.9s-7.14-4.42-7.14-11.9v-41.14c0-7.31,1.7-11.9,7.14-11.9s6.97,4.42,6.97,11.9v41.14Z"/>
      <path class="cls-1" d="M254.86,165.57v-50.66h13.94v-18.19h-13.94v-29.92h-28.05v29.92h-9.52v18.19h9.52v53.38c0,17.68,5.27,27.71,27.54,27.71,6.63,0,13.6-.85,16.66-1.36v-21.76c-2.04.34-4.59.68-7.48.68-5.1,0-8.67-2.38-8.67-7.99Z"/>
      <path class="cls-1" d="M316.22,95.02c-21.25,0-34.17,11.73-34.17,32.81v36.04c0,20.91,12.75,32.81,34.17,32.81s32.64-10.2,32.64-30.09v-9.52h-25.5v10.37c0,7.14-3.06,9.52-7.14,9.52s-6.8-2.89-6.8-10.54v-18.87h39.44v-19.72c0-21.42-10.88-32.81-32.64-32.81ZM323.37,134.63h-13.94v-8.33c0-9.01,2.55-11.56,6.63-11.56s7.31,2.21,7.31,10.03v9.86Z"/>
      <path class="cls-1" d="M412.95,95.02c-6.8,0-14.62,2.89-21.25,8.84v-7.14h-27.71v130.56h27.71v-39.78c6.46,5.61,13.77,9.18,20.91,9.18,13.94,0,21.42-12.07,21.42-30.43v-42.33c0-15.98-6.12-28.9-21.08-28.9ZM406.32,167.78c0,6.12-2.04,11.05-7.31,11.05-2.55,0-4.93-1.02-7.31-2.55v-61.2c2.21-2.04,4.93-3.4,7.82-3.4,4.76,0,6.8,4.59,6.8,10.2v45.9Z"/>
      <path class="cls-1" d="M559.32,170.5v-45.9c0-17.34-9.86-29.58-29.75-29.58-22.95,0-34.17,10.88-35.19,34.51l25.84,1.02.68-7.14c.17-4.42,1.36-7.82,6.12-7.82s5.78,3.57,5.78,8.67v9.86c-18.53,6.46-40.46,14.11-40.46,38.59,0,11.56,7.82,23.97,22.78,23.97,10.37,0,16.49-7.48,18.87-15.64.34,1.19,1.53,8.67,2.21,13.94h24.82c-.85-4.76-1.7-12.24-1.7-24.48ZM532.8,173.05c-1.87,2.55-4.42,4.93-7.82,4.93-4.76,0-7.65-4.08-7.65-10.71,0-9.86,6.29-15.81,15.47-21.08v26.86Z"/>
      <path class="cls-1" d="M478.41,54.87c-8.03-8.03-21.05-8.03-29.09,0-6.57,6.57-7.92,16.73-3.29,24.79l17.84,31.06,17.84-31.06c4.63-8.06,3.28-18.22-3.29-24.79h0ZM463.87,79.78c-5.97,0-10.82-4.84-10.82-10.82s4.84-10.82,10.82-10.82,10.82,4.84,10.82,10.82-4.84,10.82-10.82,10.82Z"/>
      <polygon class="cls-1" points="450.01 96.72 450.01 194.98 477.72 194.98 477.72 96.72 463.87 122.89 450.01 96.72"/>
    </g>
  </g>
</svg>